<?xml version="1.0" encoding="UTF-8" standalone="no"?>
<!DOCTYPE svg PUBLIC "-//W3C//DTD SVG 1.1//EN"
 "http://www.w3.org/Graphics/SVG/1.1/DTD/svg11.dtd">
<!-- Generated by graphviz version 2.47.0 (20210316.0004)
 -->
<!-- Title: dependencies Pages: 1 -->
<svg width="722pt" height="284pt"
 viewBox="0.00 0.00 722.00 284.00" xmlns="http://www.w3.org/2000/svg" xmlns:xlink="http://www.w3.org/1999/xlink">
<g id="graph0" class="graph" transform="scale(1 1) rotate(0) translate(4 280)">
<title>dependencies</title>
<polygon fill="white" stroke="transparent" points="-4,4 -4,-280 718,-280 718,4 -4,4"/>
<text text-anchor="start" x="336.01" y="-42.4" font-family="sans-serif" font-weight="bold" font-size="14.00">Legend</text>
<polygon fill="#ffffb3" stroke="transparent" points="123,-10 123,-30 143,-30 143,-10 123,-10"/>
<text text-anchor="start" x="146.63" y="-15.4" font-family="sans-serif" font-size="14.00"> &#160;Declarations</text>
<polygon fill="#8dd3c7" stroke="transparent" points="236,-10 236,-30 256,-30 256,-10 236,-10"/>
<text text-anchor="start" x="259.73" y="-15.4" font-family="sans-serif" font-size="14.00"> &#160;Module</text>
<polygon fill="#80b1d3" stroke="transparent" points="322,-10 322,-30 342,-30 342,-10 322,-10"/>
<text text-anchor="start" x="345.78" y="-15.4" font-family="sans-serif" font-size="14.00"> &#160;Bootstrap</text>
<polygon fill="#fdb462" stroke="transparent" points="419,-10 419,-30 439,-30 439,-10 419,-10"/>
<text text-anchor="start" x="442.67" y="-15.4" font-family="sans-serif" font-size="14.00"> &#160;Providers</text>
<polygon fill="#fb8072" stroke="transparent" points="515,-10 515,-30 535,-30 535,-10 515,-10"/>
<text text-anchor="start" x="538.73" y="-15.4" font-family="sans-serif" font-size="14.00"> &#160;Exports</text>
<g id="clust1" class="cluster">
<title>cluster_AppModule</title>
<polygon fill="none" stroke="black" stroke-dasharray="1,5" points="8,-70 8,-268 706,-268 706,-70 8,-70"/>
</g>
<g id="clust7" class="cluster">
<title>cluster_AppModule_imports</title>
<polygon fill="none" stroke="black" points="554,-78 554,-130 698,-130 698,-78 554,-78"/>
</g>
<g id="clust9" class="cluster">
<title>cluster_AppModule_bootstrap</title>
<polygon fill="none" stroke="black" points="294,-208 294,-260 418,-260 418,-208 294,-208"/>
</g>
<g id="clust2" class="cluster">
<title>cluster_AppModule_declarations</title>
<polygon fill="none" stroke="black" points="16,-78 16,-130 546,-130 546,-78 16,-78"/>
</g>
<!-- AppComponent -->
<g id="node1" class="node">
<title>AppComponent</title>
<polygon fill="#ffffb3" stroke="black" points="537.94,-122 432.06,-122 432.06,-86 537.94,-86 537.94,-122"/>
<text text-anchor="middle" x="485" y="-99.8" font-family="Times,serif" font-size="14.00">AppComponent</text>
</g>
<!-- AppModule -->
<g id="node5" class="node">
<title>AppModule</title>
<polygon fill="#8dd3c7" stroke="black" points="397.66,-187 394.66,-191 373.66,-191 370.66,-187 314.34,-187 314.34,-151 397.66,-151 397.66,-187"/>
<text text-anchor="middle" x="356" y="-164.8" font-family="Times,serif" font-size="14.00">AppModule</text>
</g>
<!-- AppComponent&#45;&gt;AppModule -->
<g id="edge1" class="edge">
<title>AppComponent&#45;&gt;AppModule</title>
<path fill="none" stroke="black" d="M485,-122.02C485,-139.37 485,-163 485,-163 485,-163 407.88,-163 407.88,-163"/>
<polygon fill="black" stroke="black" points="407.88,-159.5 397.88,-163 407.88,-166.5 407.88,-159.5"/>
</g>
<!-- EntrarComponent -->
<g id="node2" class="node">
<title>EntrarComponent</title>
<polygon fill="#ffffb3" stroke="black" points="414.31,-122 297.69,-122 297.69,-86 414.31,-86 414.31,-122"/>
<text text-anchor="middle" x="356" y="-99.8" font-family="Times,serif" font-size="14.00">EntrarComponent</text>
</g>
<!-- EntrarComponent&#45;&gt;AppModule -->
<g id="edge2" class="edge">
<title>EntrarComponent&#45;&gt;AppModule</title>
<path fill="none" stroke="black" d="M356,-122.11C356,-122.11 356,-140.99 356,-140.99"/>
<polygon fill="black" stroke="black" points="352.5,-140.99 356,-150.99 359.5,-140.99 352.5,-140.99"/>
</g>
<!-- MenuComponent -->
<g id="node3" class="node">
<title>MenuComponent</title>
<polygon fill="#ffffb3" stroke="black" points="279.99,-122 166.01,-122 166.01,-86 279.99,-86 279.99,-122"/>
<text text-anchor="middle" x="223" y="-99.8" font-family="Times,serif" font-size="14.00">MenuComponent</text>
</g>
<!-- MenuComponent&#45;&gt;AppModule -->
<g id="edge3" class="edge">
<title>MenuComponent&#45;&gt;AppModule</title>
<path fill="none" stroke="black" d="M223,-122.02C223,-139.37 223,-163 223,-163 223,-163 304.28,-163 304.28,-163"/>
<polygon fill="black" stroke="black" points="304.28,-166.5 314.28,-163 304.28,-159.5 304.28,-166.5"/>
</g>
<!-- RodapeComponent -->
<g id="node4" class="node">
<title>RodapeComponent</title>
<polygon fill="#ffffb3" stroke="black" points="148.1,-122 23.9,-122 23.9,-86 148.1,-86 148.1,-122"/>
<text text-anchor="middle" x="86" y="-99.8" font-family="Times,serif" font-size="14.00">RodapeComponent</text>
</g>
<!-- RodapeComponent&#45;&gt;AppModule -->
<g id="edge4" class="edge">
<title>RodapeComponent&#45;&gt;AppModule</title>
<path fill="none" stroke="black" d="M86,-122.28C86,-143.32 86,-175 86,-175 86,-175 304.11,-175 304.11,-175"/>
<polygon fill="black" stroke="black" points="304.11,-178.5 314.11,-175 304.11,-171.5 304.11,-178.5"/>
</g>
<!-- AppComponent  -->
<g id="node7" class="node">
<title>AppComponent </title>
<polygon fill="#80b1d3" stroke="black" points="410.44,-252 301.56,-252 301.56,-216 410.44,-216 410.44,-252"/>
<text text-anchor="middle" x="356" y="-229.8" font-family="Times,serif" font-size="14.00">AppComponent </text>
</g>
<!-- AppModule&#45;&gt;AppComponent  -->
<g id="edge6" class="edge">
<title>AppModule&#45;&gt;AppComponent </title>
<path fill="none" stroke="black" stroke-dasharray="1,5" d="M356,-187.11C356,-187.11 356,-205.99 356,-205.99"/>
<polygon fill="black" stroke="black" points="352.5,-205.99 356,-215.99 359.5,-205.99 352.5,-205.99"/>
</g>
<!-- AppRoutingModule -->
<g id="node6" class="node">
<title>AppRoutingModule</title>
<polygon fill="#8dd3c7" stroke="black" points="690.27,-122 687.27,-126 666.27,-126 663.27,-122 561.73,-122 561.73,-86 690.27,-86 690.27,-122"/>
<text text-anchor="middle" x="626" y="-99.8" font-family="Times,serif" font-size="14.00">AppRoutingModule</text>
</g>
<!-- AppRoutingModule&#45;&gt;AppModule -->
<g id="edge5" class="edge">
<title>AppRoutingModule&#45;&gt;AppModule</title>
<path fill="none" stroke="black" d="M626,-122.28C626,-143.32 626,-175 626,-175 626,-175 407.89,-175 407.89,-175"/>
<polygon fill="black" stroke="black" points="407.89,-171.5 397.89,-175 407.89,-178.5 407.89,-171.5"/>
</g>
</g>
</svg>
